# xmcd
#
# Track frame offsets:
#	150
#	12740
#	23077
#	40405
#	52407
#	64990
#	75465
#	92915
#	109130
#	124222
#
# Disc length: 1880 seconds
#
# Revision: 1
# Processed by: cddbd v1.5.2PL0 Copyright (c) Steve Scherf et al.
# Submitted via: audiograbber 1.83.01
#
DISCID=8d07560a
DTITLE=Jerry Lee Lewis - Mean Old Man
DYEAR=2010
DGENRE=Rock
TTITLE0=Mean Old Man (w Ronnie Wood)
TTITLE1=Rockin' My Life Away (w Kid Rock and Slash)
TTITLE2=Sweet Virginia (w Keith Richards)
TTITLE3=You Can Have Her (w Eric Clapton and James Burton)
TTITLE4=Roll Over Beethoven (w Ringo Starr, John Mayer and Jon Brion)
TTITLE5=Bad Moon Rising (w John Fogerty)
TTITLE6=Dead Flowers (w Mick Jagger)
TTITLE7=You Are My Sunshine (w Sheryl Crow and Jon Brion)
TTITLE8=Whiskey River (w Willie Nelson)
TTITLE9=Middle Age Crazy (w Tim McGraw and Jon Brion)
EXTD=
EXTT0=
EXTT1=
EXTT2=
EXTT3=
EXTT4=
EXTT5=
EXTT6=
EXTT7=
EXTT8=
EXTT9=
PLAYORDER=
